<?xml version="1.0" standalone="no"?><!DOCTYPE svg PUBLIC "-//W3C//DTD SVG 1.1//EN" "http://www.w3.org/Graphics/SVG/1.1/DTD/svg11.dtd"><svg t="1662085684201" class="icon" viewBox="0 0 1024 1024" version="1.1" xmlns="http://www.w3.org/2000/svg" p-id="22901" width="128" height="128" xmlns:xlink="http://www.w3.org/1999/xlink"><path d="M512 10.272c-276.672 0-501.696 225.056-501.696 501.696 0 276.672 225.024 501.728 501.696 501.728 276.608 0 501.664-225.056 501.664-501.728C1013.664 235.328 788.608 10.272 512 10.272zM512 933.824c-232.64 0-421.856-189.216-421.856-421.856C90.144 279.392 279.36 90.112 512 90.112c232.608 0 421.824 189.28 421.824 421.856C933.824 744.608 744.608 933.824 512 933.824z" p-id="22902" fill="#EC602A"></path><path d="M626.048 406.048 626.048 244.832c0-27.776-22.496-50.24-50.24-50.24l-108.704 0c-27.744 0-50.208 22.496-50.208 50.24l0 161.216L255.616 406.048c-27.744 0-50.208 22.496-50.208 50.24l0 110.976c0 27.744 22.464 50.24 50.208 50.24l161.248 0 0 161.216c0 27.744 22.464 50.24 50.208 50.24l108.704 0c27.744 0 50.24-22.496 50.24-50.24l0-161.216 161.216 0c27.744 0 50.24-22.496 50.24-50.24l0-110.976c0-27.776-22.496-50.24-50.24-50.24L626.048 406.048z" p-id="22903" fill="#EC602A"></path></svg>